<mxfile host="app.diagrams.net" agent="Mozilla/5.0 (Windows NT 10.0; Win64; x64) AppleWebKit/537.36 (KHTML, like Gecko) Chrome/132.0.0.0 Safari/537.36" version="24.8.1">
  <diagram name="PÃ¡gina-1" id="oRGlczirkOxhpzU5BAwE">
    <mxGraphModel grid="1" page="1" gridSize="10" guides="1" tooltips="1" connect="1" arrows="1" fold="1" pageScale="1" pageWidth="827" pageHeight="1169" math="0" shadow="0">
      <root>
        <mxCell id="0" />
        <mxCell id="1" parent="0" />
        <mxCell id="O7KNCZ3Anrm-9okoOzQl-101" style="edgeStyle=orthogonalEdgeStyle;rounded=0;orthogonalLoop=1;jettySize=auto;html=1;exitX=0;exitY=0.5;exitDx=0;exitDy=0;entryX=1;entryY=0.5;entryDx=0;entryDy=0;" edge="1" parent="1" source="O7KNCZ3Anrm-9okoOzQl-1" target="O7KNCZ3Anrm-9okoOzQl-3">
          <mxGeometry relative="1" as="geometry" />
        </mxCell>
        <mxCell id="O7KNCZ3Anrm-9okoOzQl-1" value="tiene" style="rhombus;whiteSpace=wrap;html=1;fillColor=none;" vertex="1" parent="1">
          <mxGeometry x="290" y="70" width="80" height="80" as="geometry" />
        </mxCell>
        <mxCell id="O7KNCZ3Anrm-9okoOzQl-2" value="Viajes" style="rounded=0;whiteSpace=wrap;html=1;fillColor=none;" vertex="1" parent="1">
          <mxGeometry x="520" y="80" width="120" height="60" as="geometry" />
        </mxCell>
        <mxCell id="O7KNCZ3Anrm-9okoOzQl-3" value="Agencia&amp;nbsp;" style="rounded=0;whiteSpace=wrap;html=1;fillColor=none;" vertex="1" parent="1">
          <mxGeometry x="60" y="80" width="120" height="60" as="geometry" />
        </mxCell>
        <mxCell id="O7KNCZ3Anrm-9okoOzQl-4" value="ColorAgencia" style="ellipse;whiteSpace=wrap;html=1;fillColor=none;" vertex="1" parent="1">
          <mxGeometry x="-100" y="110" width="120" height="30" as="geometry" />
        </mxCell>
        <mxCell id="O7KNCZ3Anrm-9okoOzQl-5" value="TipoAgencia" style="ellipse;whiteSpace=wrap;html=1;fillColor=none;" vertex="1" parent="1">
          <mxGeometry x="-100" y="70" width="120" height="30" as="geometry" />
        </mxCell>
        <mxCell id="O7KNCZ3Anrm-9okoOzQl-6" value="NomAgencia" style="ellipse;whiteSpace=wrap;html=1;fillColor=none;" vertex="1" parent="1">
          <mxGeometry x="-100" y="30" width="120" height="30" as="geometry" />
        </mxCell>
        <mxCell id="O7KNCZ3Anrm-9okoOzQl-7" value="Id_Agencia" style="ellipse;whiteSpace=wrap;html=1;fillColor=none;" vertex="1" parent="1">
          <mxGeometry x="-100" y="-10" width="120" height="30" as="geometry" />
        </mxCell>
        <mxCell id="O7KNCZ3Anrm-9okoOzQl-8" value="Logo&amp;nbsp;" style="ellipse;whiteSpace=wrap;html=1;fillColor=none;" vertex="1" parent="1">
          <mxGeometry x="-100" y="190" width="120" height="30" as="geometry" />
        </mxCell>
        <mxCell id="O7KNCZ3Anrm-9okoOzQl-9" value="NumEmp" style="ellipse;whiteSpace=wrap;html=1;fillColor=none;" vertex="1" parent="1">
          <mxGeometry x="-100" y="150" width="120" height="30" as="geometry" />
        </mxCell>
        <mxCell id="O7KNCZ3Anrm-9okoOzQl-10" value="pass" style="ellipse;whiteSpace=wrap;html=1;fillColor=none;" vertex="1" parent="1">
          <mxGeometry x="-100" y="230" width="120" height="30" as="geometry" />
        </mxCell>
        <mxCell id="O7KNCZ3Anrm-9okoOzQl-102" style="edgeStyle=orthogonalEdgeStyle;rounded=0;orthogonalLoop=1;jettySize=auto;html=1;exitX=0;exitY=0.5;exitDx=0;exitDy=0;entryX=1;entryY=0.5;entryDx=0;entryDy=0;" edge="1" parent="1" source="O7KNCZ3Anrm-9okoOzQl-11" target="O7KNCZ3Anrm-9okoOzQl-2">
          <mxGeometry relative="1" as="geometry" />
        </mxCell>
        <mxCell id="O7KNCZ3Anrm-9okoOzQl-11" value="posee" style="rhombus;whiteSpace=wrap;html=1;fillColor=none;" vertex="1" parent="1">
          <mxGeometry x="746" y="70" width="80" height="80" as="geometry" />
        </mxCell>
        <mxCell id="O7KNCZ3Anrm-9okoOzQl-12" value="Evento" style="rounded=0;whiteSpace=wrap;html=1;fillColor=none;" vertex="1" parent="1">
          <mxGeometry x="910" y="80" width="120" height="60" as="geometry" />
        </mxCell>
        <mxCell id="O7KNCZ3Anrm-9okoOzQl-13" value="" style="ellipse;whiteSpace=wrap;html=1;fillColor=none;" vertex="1" parent="1">
          <mxGeometry x="955" y="180" width="30" height="30" as="geometry" />
        </mxCell>
        <mxCell id="O7KNCZ3Anrm-9okoOzQl-14" value="" style="triangle;whiteSpace=wrap;html=1;rotation=90;fillColor=none;" vertex="1" parent="1">
          <mxGeometry x="950" y="220" width="40" height="80" as="geometry" />
        </mxCell>
        <mxCell id="O7KNCZ3Anrm-9okoOzQl-15" value="Plan_Viaje" style="rounded=0;whiteSpace=wrap;html=1;fillColor=none;" vertex="1" parent="1">
          <mxGeometry x="487" y="525" width="120" height="60" as="geometry" />
        </mxCell>
        <mxCell id="O7KNCZ3Anrm-9okoOzQl-16" value="Alojamiento" style="rounded=0;whiteSpace=wrap;html=1;fillColor=none;" vertex="1" parent="1">
          <mxGeometry x="910" y="525" width="120" height="60" as="geometry" />
        </mxCell>
        <mxCell id="O7KNCZ3Anrm-9okoOzQl-17" value="&amp;nbsp;Actividad" style="rounded=0;whiteSpace=wrap;html=1;fillColor=none;" vertex="1" parent="1">
          <mxGeometry x="1390" y="525" width="120" height="60" as="geometry" />
        </mxCell>
        <mxCell id="O7KNCZ3Anrm-9okoOzQl-37" value="&amp;nbsp;TipoEvento" style="ellipse;whiteSpace=wrap;html=1;fillColor=none;" vertex="1" parent="1">
          <mxGeometry x="1080" y="130" width="120" height="30" as="geometry" />
        </mxCell>
        <mxCell id="O7KNCZ3Anrm-9okoOzQl-38" value="&amp;nbsp;Nom_Evento&amp;nbsp;" style="ellipse;whiteSpace=wrap;html=1;fillColor=none;" vertex="1" parent="1">
          <mxGeometry x="1080" y="90" width="120" height="30" as="geometry" />
        </mxCell>
        <mxCell id="O7KNCZ3Anrm-9okoOzQl-39" value="Id_Evento" style="ellipse;whiteSpace=wrap;html=1;fillColor=none;" vertex="1" parent="1">
          <mxGeometry x="1080" y="50" width="120" height="30" as="geometry" />
        </mxCell>
        <mxCell id="O7KNCZ3Anrm-9okoOzQl-40" value="&amp;nbsp;Pais" style="rounded=0;whiteSpace=wrap;html=1;fillColor=none;" vertex="1" parent="1">
          <mxGeometry x="-1060" y="525" width="120" height="60" as="geometry" />
        </mxCell>
        <mxCell id="O7KNCZ3Anrm-9okoOzQl-41" value="Id_Pais" style="ellipse;whiteSpace=wrap;html=1;fillColor=none;" vertex="1" parent="1">
          <mxGeometry x="-1220" y="515" width="120" height="30" as="geometry" />
        </mxCell>
        <mxCell id="O7KNCZ3Anrm-9okoOzQl-42" value="NomPais" style="ellipse;whiteSpace=wrap;html=1;fillColor=none;" vertex="1" parent="1">
          <mxGeometry x="-1220" y="555" width="120" height="30" as="geometry" />
        </mxCell>
        <mxCell id="O7KNCZ3Anrm-9okoOzQl-43" value="Aeropuerto" style="rounded=0;whiteSpace=wrap;html=1;fillColor=none;" vertex="1" parent="1">
          <mxGeometry x="-490" y="524" width="120" height="60" as="geometry" />
        </mxCell>
        <mxCell id="O7KNCZ3Anrm-9okoOzQl-44" value="Ciudad" style="ellipse;whiteSpace=wrap;html=1;fillColor=none;" vertex="1" parent="1">
          <mxGeometry x="-380" y="650" width="70" height="30" as="geometry" />
        </mxCell>
        <mxCell id="O7KNCZ3Anrm-9okoOzQl-45" value="NomAero&amp;nbsp;" style="ellipse;whiteSpace=wrap;html=1;fillColor=none;" vertex="1" parent="1">
          <mxGeometry x="-460" y="670" width="80" height="30" as="geometry" />
        </mxCell>
        <mxCell id="O7KNCZ3Anrm-9okoOzQl-46" value="Id_Aeropuerto&amp;nbsp;" style="ellipse;whiteSpace=wrap;html=1;fillColor=none;" vertex="1" parent="1">
          <mxGeometry x="-570" y="650" width="100" height="30" as="geometry" />
        </mxCell>
        <mxCell id="O7KNCZ3Anrm-9okoOzQl-47" value="Vuelo" style="rounded=0;whiteSpace=wrap;html=1;fillColor=none;" vertex="1" parent="1">
          <mxGeometry x="80" y="524" width="120" height="60" as="geometry" />
        </mxCell>
        <mxCell id="O7KNCZ3Anrm-9okoOzQl-57" value="Id_Alojamiento" style="ellipse;whiteSpace=wrap;html=1;fillColor=none;" vertex="1" parent="1">
          <mxGeometry x="760" y="640" width="90" height="30" as="geometry" />
        </mxCell>
        <mxCell id="O7KNCZ3Anrm-9okoOzQl-58" value="nomHotel" style="ellipse;whiteSpace=wrap;html=1;fillColor=none;" vertex="1" parent="1">
          <mxGeometry x="827" y="680" width="60" height="30" as="geometry" />
        </mxCell>
        <mxCell id="O7KNCZ3Anrm-9okoOzQl-59" value="&amp;nbsp;TipoHab" style="ellipse;whiteSpace=wrap;html=1;fillColor=none;" vertex="1" parent="1">
          <mxGeometry x="890" y="700" width="70" height="30" as="geometry" />
        </mxCell>
        <mxCell id="O7KNCZ3Anrm-9okoOzQl-60" value="&amp;nbsp;Ciudad" style="ellipse;whiteSpace=wrap;html=1;fillColor=none;" vertex="1" parent="1">
          <mxGeometry x="1040" y="690" width="50" height="30" as="geometry" />
        </mxCell>
        <mxCell id="O7KNCZ3Anrm-9okoOzQl-61" value="&amp;nbsp; Precio" style="ellipse;whiteSpace=wrap;html=1;fillColor=none;" vertex="1" parent="1">
          <mxGeometry x="1100" y="670" width="50" height="30" as="geometry" />
        </mxCell>
        <mxCell id="O7KNCZ3Anrm-9okoOzQl-62" value="fechaEnt" style="ellipse;whiteSpace=wrap;html=1;fillColor=none;" vertex="1" parent="1">
          <mxGeometry x="970" y="700" width="60" height="30" as="geometry" />
        </mxCell>
        <mxCell id="O7KNCZ3Anrm-9okoOzQl-63" value="FechaSal" style="ellipse;whiteSpace=wrap;html=1;fillColor=none;" vertex="1" parent="1">
          <mxGeometry x="1130" y="640" width="60" height="30" as="geometry" />
        </mxCell>
        <mxCell id="O7KNCZ3Anrm-9okoOzQl-64" value="&amp;nbsp;TipoHab" style="ellipse;whiteSpace=wrap;html=1;" vertex="1" parent="1">
          <mxGeometry x="1270" y="1860" width="120" height="30" as="geometry" />
        </mxCell>
        <mxCell id="O7KNCZ3Anrm-9okoOzQl-66" value="Id_Actividad" style="ellipse;whiteSpace=wrap;html=1;fillColor=none;" vertex="1" parent="1">
          <mxGeometry x="1270" y="640" width="80" height="30" as="geometry" />
        </mxCell>
        <mxCell id="O7KNCZ3Anrm-9okoOzQl-67" value="&amp;nbsp; Descripcion" style="ellipse;whiteSpace=wrap;html=1;fillColor=none;" vertex="1" parent="1">
          <mxGeometry x="1360" y="660" width="80" height="30" as="geometry" />
        </mxCell>
        <mxCell id="O7KNCZ3Anrm-9okoOzQl-68" value="&amp;nbsp; Precio&amp;nbsp;" style="ellipse;whiteSpace=wrap;html=1;fillColor=none;" vertex="1" parent="1">
          <mxGeometry x="1530" y="630" width="80" height="30" as="geometry" />
        </mxCell>
        <mxCell id="O7KNCZ3Anrm-9okoOzQl-70" value="fecha" style="ellipse;whiteSpace=wrap;html=1;fillColor=none;" vertex="1" parent="1">
          <mxGeometry x="1460" y="660" width="80" height="30" as="geometry" />
        </mxCell>
        <mxCell id="O7KNCZ3Anrm-9okoOzQl-74" value="&amp;nbsp; Trayecto" style="ellipse;whiteSpace=wrap;html=1;fillColor=none;" vertex="1" parent="1">
          <mxGeometry x="572" y="640" width="73" height="30" as="geometry" />
        </mxCell>
        <mxCell id="O7KNCZ3Anrm-9okoOzQl-75" value="Id_Plan" style="ellipse;whiteSpace=wrap;html=1;fillColor=none;" vertex="1" parent="1">
          <mxGeometry x="470" y="640" width="90" height="30" as="geometry" />
        </mxCell>
        <mxCell id="O7KNCZ3Anrm-9okoOzQl-84" value="ServiciosnoIncl" style="ellipse;whiteSpace=wrap;html=1;fillColor=none;" vertex="1" parent="1">
          <mxGeometry x="737" width="90" height="30" as="geometry" />
        </mxCell>
        <mxCell id="O7KNCZ3Anrm-9okoOzQl-85" value="FechInicio" style="ellipse;whiteSpace=wrap;html=1;fillColor=none;" vertex="1" parent="1">
          <mxGeometry x="537" y="-110" width="70" height="30" as="geometry" />
        </mxCell>
        <mxCell id="O7KNCZ3Anrm-9okoOzQl-86" value="TipoViaje&amp;nbsp;" style="ellipse;whiteSpace=wrap;html=1;fillColor=none;" vertex="1" parent="1">
          <mxGeometry x="497" y="-80" width="75" height="30" as="geometry" />
        </mxCell>
        <mxCell id="O7KNCZ3Anrm-9okoOzQl-87" value="NomViaje&amp;nbsp;" style="ellipse;whiteSpace=wrap;html=1;fillColor=none;" vertex="1" parent="1">
          <mxGeometry x="457" y="-40" width="70" height="30" as="geometry" />
        </mxCell>
        <mxCell id="O7KNCZ3Anrm-9okoOzQl-88" value="Id_Viaje" style="ellipse;whiteSpace=wrap;html=1;fillColor=none;" vertex="1" parent="1">
          <mxGeometry x="427" width="80" height="30" as="geometry" />
        </mxCell>
        <mxCell id="O7KNCZ3Anrm-9okoOzQl-89" value="NumDias" style="ellipse;whiteSpace=wrap;html=1;fillColor=none;" vertex="1" parent="1">
          <mxGeometry x="662" y="-120" width="70" height="30" as="geometry" />
        </mxCell>
        <mxCell id="O7KNCZ3Anrm-9okoOzQl-90" value="FechFin&amp;nbsp;" style="ellipse;whiteSpace=wrap;html=1;fillColor=none;" vertex="1" parent="1">
          <mxGeometry x="587" y="-140" width="75" height="30" as="geometry" />
        </mxCell>
        <mxCell id="O7KNCZ3Anrm-9okoOzQl-91" value="PaisDestino" style="ellipse;whiteSpace=wrap;html=1;fillColor=none;" vertex="1" parent="1">
          <mxGeometry x="687" y="-80" width="90" height="30" as="geometry" />
        </mxCell>
        <mxCell id="O7KNCZ3Anrm-9okoOzQl-92" value="Descripcion" style="ellipse;whiteSpace=wrap;html=1;fillColor=none;" vertex="1" parent="1">
          <mxGeometry x="732" y="-40" width="70" height="30" as="geometry" />
        </mxCell>
        <mxCell id="O7KNCZ3Anrm-9okoOzQl-93" value="" style="endArrow=none;html=1;rounded=0;exitX=1;exitY=0.5;exitDx=0;exitDy=0;" edge="1" parent="1" source="O7KNCZ3Anrm-9okoOzQl-7">
          <mxGeometry width="50" height="50" relative="1" as="geometry">
            <mxPoint x="10" y="160" as="sourcePoint" />
            <mxPoint x="60" y="110" as="targetPoint" />
          </mxGeometry>
        </mxCell>
        <mxCell id="O7KNCZ3Anrm-9okoOzQl-94" value="" style="endArrow=none;html=1;rounded=0;exitX=1;exitY=0.5;exitDx=0;exitDy=0;entryX=0;entryY=1;entryDx=0;entryDy=0;" edge="1" parent="1" source="O7KNCZ3Anrm-9okoOzQl-10" target="O7KNCZ3Anrm-9okoOzQl-3">
          <mxGeometry width="50" height="50" relative="1" as="geometry">
            <mxPoint x="20" y="240" as="sourcePoint" />
            <mxPoint x="110" y="180" as="targetPoint" />
          </mxGeometry>
        </mxCell>
        <mxCell id="O7KNCZ3Anrm-9okoOzQl-95" value="" style="endArrow=none;html=1;rounded=0;exitX=1;exitY=0.5;exitDx=0;exitDy=0;" edge="1" parent="1" source="O7KNCZ3Anrm-9okoOzQl-4">
          <mxGeometry width="50" height="50" relative="1" as="geometry">
            <mxPoint x="10" y="160" as="sourcePoint" />
            <mxPoint x="60" y="110" as="targetPoint" />
          </mxGeometry>
        </mxCell>
        <mxCell id="O7KNCZ3Anrm-9okoOzQl-96" value="" style="endArrow=none;html=1;rounded=0;entryX=0;entryY=0.75;entryDx=0;entryDy=0;" edge="1" parent="1" target="O7KNCZ3Anrm-9okoOzQl-3">
          <mxGeometry width="50" height="50" relative="1" as="geometry">
            <mxPoint x="20" y="160" as="sourcePoint" />
            <mxPoint x="70" y="110" as="targetPoint" />
          </mxGeometry>
        </mxCell>
        <mxCell id="O7KNCZ3Anrm-9okoOzQl-97" value="" style="endArrow=none;html=1;rounded=0;exitX=1;exitY=0.5;exitDx=0;exitDy=0;entryX=0.001;entryY=0.86;entryDx=0;entryDy=0;entryPerimeter=0;" edge="1" parent="1" target="O7KNCZ3Anrm-9okoOzQl-3">
          <mxGeometry width="50" height="50" relative="1" as="geometry">
            <mxPoint x="20" y="205" as="sourcePoint" />
            <mxPoint x="110" y="140" as="targetPoint" />
          </mxGeometry>
        </mxCell>
        <mxCell id="O7KNCZ3Anrm-9okoOzQl-98" value="" style="endArrow=none;html=1;rounded=0;exitX=1;exitY=0.5;exitDx=0;exitDy=0;entryX=0;entryY=0.5;entryDx=0;entryDy=0;" edge="1" parent="1" target="O7KNCZ3Anrm-9okoOzQl-3">
          <mxGeometry width="50" height="50" relative="1" as="geometry">
            <mxPoint x="20" y="85" as="sourcePoint" />
            <mxPoint x="60" y="70" as="targetPoint" />
          </mxGeometry>
        </mxCell>
        <mxCell id="O7KNCZ3Anrm-9okoOzQl-99" value="" style="endArrow=none;html=1;rounded=0;exitX=1;exitY=0.5;exitDx=0;exitDy=0;" edge="1" parent="1" source="O7KNCZ3Anrm-9okoOzQl-6">
          <mxGeometry width="50" height="50" relative="1" as="geometry">
            <mxPoint x="30" y="50" as="sourcePoint" />
            <mxPoint x="60" y="106" as="targetPoint" />
          </mxGeometry>
        </mxCell>
        <mxCell id="O7KNCZ3Anrm-9okoOzQl-100" value="" style="endArrow=none;html=1;rounded=0;exitX=1;exitY=0.5;exitDx=0;exitDy=0;entryX=0;entryY=0.5;entryDx=0;entryDy=0;" edge="1" parent="1" source="O7KNCZ3Anrm-9okoOzQl-1" target="O7KNCZ3Anrm-9okoOzQl-2">
          <mxGeometry width="50" height="50" relative="1" as="geometry">
            <mxPoint x="440" y="100" as="sourcePoint" />
            <mxPoint x="480" y="85" as="targetPoint" />
          </mxGeometry>
        </mxCell>
        <mxCell id="O7KNCZ3Anrm-9okoOzQl-103" value="" style="endArrow=none;html=1;rounded=0;exitX=1;exitY=0.5;exitDx=0;exitDy=0;entryX=0;entryY=0.5;entryDx=0;entryDy=0;" edge="1" parent="1" source="O7KNCZ3Anrm-9okoOzQl-11" target="O7KNCZ3Anrm-9okoOzQl-12">
          <mxGeometry width="50" height="50" relative="1" as="geometry">
            <mxPoint x="860" y="90" as="sourcePoint" />
            <mxPoint x="900" y="75" as="targetPoint" />
          </mxGeometry>
        </mxCell>
        <mxCell id="O7KNCZ3Anrm-9okoOzQl-104" value="" style="endArrow=none;html=1;rounded=0;entryX=0.5;entryY=1;entryDx=0;entryDy=0;exitX=0.5;exitY=0;exitDx=0;exitDy=0;" edge="1" parent="1" source="O7KNCZ3Anrm-9okoOzQl-13" target="O7KNCZ3Anrm-9okoOzQl-12">
          <mxGeometry width="50" height="50" relative="1" as="geometry">
            <mxPoint x="970" y="177" as="sourcePoint" />
            <mxPoint x="1000" y="145" as="targetPoint" />
          </mxGeometry>
        </mxCell>
        <mxCell id="O7KNCZ3Anrm-9okoOzQl-105" value="" style="endArrow=none;html=1;rounded=0;exitX=0;exitY=0.5;exitDx=0;exitDy=0;entryX=0.5;entryY=1;entryDx=0;entryDy=0;" edge="1" parent="1" source="O7KNCZ3Anrm-9okoOzQl-14" target="O7KNCZ3Anrm-9okoOzQl-13">
          <mxGeometry width="50" height="50" relative="1" as="geometry">
            <mxPoint x="980" y="220" as="sourcePoint" />
            <mxPoint x="1020" y="205" as="targetPoint" />
          </mxGeometry>
        </mxCell>
        <mxCell id="O7KNCZ3Anrm-9okoOzQl-106" value="" style="endArrow=none;html=1;rounded=0;exitX=0.5;exitY=0;exitDx=0;exitDy=0;entryX=0.5;entryY=1;entryDx=0;entryDy=0;" edge="1" parent="1" source="O7KNCZ3Anrm-9okoOzQl-15" target="O7KNCZ3Anrm-9okoOzQl-14">
          <mxGeometry width="50" height="50" relative="1" as="geometry">
            <mxPoint x="890" y="315" as="sourcePoint" />
            <mxPoint x="930" y="300" as="targetPoint" />
          </mxGeometry>
        </mxCell>
        <mxCell id="O7KNCZ3Anrm-9okoOzQl-107" value="" style="endArrow=none;html=1;rounded=0;exitX=1;exitY=0.5;exitDx=0;exitDy=0;entryX=0;entryY=0.5;entryDx=0;entryDy=0;" edge="1" parent="1" source="O7KNCZ3Anrm-9okoOzQl-12" target="O7KNCZ3Anrm-9okoOzQl-39">
          <mxGeometry width="50" height="50" relative="1" as="geometry">
            <mxPoint x="1060" y="90" as="sourcePoint" />
            <mxPoint x="1100" y="75" as="targetPoint" />
          </mxGeometry>
        </mxCell>
        <mxCell id="O7KNCZ3Anrm-9okoOzQl-108" value="" style="endArrow=none;html=1;rounded=0;exitX=1;exitY=0.5;exitDx=0;exitDy=0;entryX=0;entryY=0.5;entryDx=0;entryDy=0;" edge="1" parent="1" source="O7KNCZ3Anrm-9okoOzQl-12" target="O7KNCZ3Anrm-9okoOzQl-38">
          <mxGeometry width="50" height="50" relative="1" as="geometry">
            <mxPoint x="1060" y="110" as="sourcePoint" />
            <mxPoint x="1100" y="95" as="targetPoint" />
          </mxGeometry>
        </mxCell>
        <mxCell id="O7KNCZ3Anrm-9okoOzQl-109" value="" style="endArrow=none;html=1;rounded=0;exitX=1;exitY=0.5;exitDx=0;exitDy=0;entryX=0;entryY=0.5;entryDx=0;entryDy=0;" edge="1" parent="1" source="O7KNCZ3Anrm-9okoOzQl-12" target="O7KNCZ3Anrm-9okoOzQl-37">
          <mxGeometry width="50" height="50" relative="1" as="geometry">
            <mxPoint x="1040" y="120" as="sourcePoint" />
            <mxPoint x="1080" y="105" as="targetPoint" />
          </mxGeometry>
        </mxCell>
        <mxCell id="O7KNCZ3Anrm-9okoOzQl-110" value="" style="endArrow=none;html=1;rounded=0;entryX=0.5;entryY=1;entryDx=0;entryDy=0;exitX=0.5;exitY=0;exitDx=0;exitDy=0;" edge="1" parent="1" source="O7KNCZ3Anrm-9okoOzQl-2" target="O7KNCZ3Anrm-9okoOzQl-88">
          <mxGeometry width="50" height="50" relative="1" as="geometry">
            <mxPoint x="600" y="110" as="sourcePoint" />
            <mxPoint x="650" y="60" as="targetPoint" />
          </mxGeometry>
        </mxCell>
        <mxCell id="O7KNCZ3Anrm-9okoOzQl-111" value="" style="endArrow=none;html=1;rounded=0;exitX=1;exitY=0.5;exitDx=0;exitDy=0;entryX=0.5;entryY=0;entryDx=0;entryDy=0;" edge="1" parent="1" source="O7KNCZ3Anrm-9okoOzQl-87" target="O7KNCZ3Anrm-9okoOzQl-2">
          <mxGeometry width="50" height="50" relative="1" as="geometry">
            <mxPoint x="600" y="110" as="sourcePoint" />
            <mxPoint x="650" y="60" as="targetPoint" />
          </mxGeometry>
        </mxCell>
        <mxCell id="O7KNCZ3Anrm-9okoOzQl-112" value="" style="endArrow=none;html=1;rounded=0;exitX=0.555;exitY=-0.042;exitDx=0;exitDy=0;exitPerimeter=0;entryX=0.5;entryY=1;entryDx=0;entryDy=0;" edge="1" parent="1" source="O7KNCZ3Anrm-9okoOzQl-2" target="O7KNCZ3Anrm-9okoOzQl-91">
          <mxGeometry width="50" height="50" relative="1" as="geometry">
            <mxPoint x="690" y="-30" as="sourcePoint" />
            <mxPoint x="730" y="-45" as="targetPoint" />
          </mxGeometry>
        </mxCell>
        <mxCell id="O7KNCZ3Anrm-9okoOzQl-113" value="" style="endArrow=none;html=1;rounded=0;exitX=0.555;exitY=-0.028;exitDx=0;exitDy=0;exitPerimeter=0;entryX=0.413;entryY=1.046;entryDx=0;entryDy=0;entryPerimeter=0;" edge="1" parent="1" source="O7KNCZ3Anrm-9okoOzQl-2" target="O7KNCZ3Anrm-9okoOzQl-89">
          <mxGeometry width="50" height="50" relative="1" as="geometry">
            <mxPoint x="660" y="-10" as="sourcePoint" />
            <mxPoint x="700" y="-25" as="targetPoint" />
          </mxGeometry>
        </mxCell>
        <mxCell id="O7KNCZ3Anrm-9okoOzQl-114" value="" style="endArrow=none;html=1;rounded=0;exitX=0.5;exitY=0;exitDx=0;exitDy=0;entryX=0.5;entryY=1;entryDx=0;entryDy=0;" edge="1" parent="1" source="O7KNCZ3Anrm-9okoOzQl-2" target="O7KNCZ3Anrm-9okoOzQl-90">
          <mxGeometry width="50" height="50" relative="1" as="geometry">
            <mxPoint x="610" y="-50" as="sourcePoint" />
            <mxPoint x="650" y="-65" as="targetPoint" />
          </mxGeometry>
        </mxCell>
        <mxCell id="O7KNCZ3Anrm-9okoOzQl-115" value="" style="endArrow=none;html=1;rounded=0;exitX=0.5;exitY=0;exitDx=0;exitDy=0;entryX=0.5;entryY=1;entryDx=0;entryDy=0;" edge="1" parent="1" source="O7KNCZ3Anrm-9okoOzQl-2" target="O7KNCZ3Anrm-9okoOzQl-85">
          <mxGeometry width="50" height="50" relative="1" as="geometry">
            <mxPoint x="630" y="-70" as="sourcePoint" />
            <mxPoint x="670" y="-85" as="targetPoint" />
          </mxGeometry>
        </mxCell>
        <mxCell id="O7KNCZ3Anrm-9okoOzQl-116" value="" style="endArrow=none;html=1;rounded=0;exitX=0.5;exitY=0;exitDx=0;exitDy=0;entryX=0.5;entryY=1;entryDx=0;entryDy=0;" edge="1" parent="1" source="O7KNCZ3Anrm-9okoOzQl-2" target="O7KNCZ3Anrm-9okoOzQl-86">
          <mxGeometry width="50" height="50" relative="1" as="geometry">
            <mxPoint x="580" y="-60" as="sourcePoint" />
            <mxPoint x="620" y="-75" as="targetPoint" />
          </mxGeometry>
        </mxCell>
        <mxCell id="O7KNCZ3Anrm-9okoOzQl-117" value="" style="endArrow=none;html=1;rounded=0;exitX=0.547;exitY=-0.028;exitDx=0;exitDy=0;exitPerimeter=0;entryX=0;entryY=0.5;entryDx=0;entryDy=0;" edge="1" parent="1" source="O7KNCZ3Anrm-9okoOzQl-2" target="O7KNCZ3Anrm-9okoOzQl-84">
          <mxGeometry width="50" height="50" relative="1" as="geometry">
            <mxPoint x="700" y="40" as="sourcePoint" />
            <mxPoint x="740" y="25" as="targetPoint" />
          </mxGeometry>
        </mxCell>
        <mxCell id="O7KNCZ3Anrm-9okoOzQl-118" value="" style="endArrow=none;html=1;rounded=0;exitX=0.5;exitY=0;exitDx=0;exitDy=0;entryX=0;entryY=0.5;entryDx=0;entryDy=0;" edge="1" parent="1" source="O7KNCZ3Anrm-9okoOzQl-2" target="O7KNCZ3Anrm-9okoOzQl-92">
          <mxGeometry width="50" height="50" relative="1" as="geometry">
            <mxPoint x="610" y="20" as="sourcePoint" />
            <mxPoint x="650" y="5" as="targetPoint" />
          </mxGeometry>
        </mxCell>
        <mxCell id="O7KNCZ3Anrm-9okoOzQl-120" value="" style="endArrow=none;html=1;rounded=0;entryX=1;entryY=0.5;entryDx=0;entryDy=0;" edge="1" parent="1" source="O7KNCZ3Anrm-9okoOzQl-16" target="O7KNCZ3Anrm-9okoOzQl-14">
          <mxGeometry width="50" height="50" relative="1" as="geometry">
            <mxPoint x="940" y="330" as="sourcePoint" />
            <mxPoint x="980" y="315" as="targetPoint" />
          </mxGeometry>
        </mxCell>
        <mxCell id="O7KNCZ3Anrm-9okoOzQl-121" value="" style="endArrow=none;html=1;rounded=0;exitX=0.5;exitY=0;exitDx=0;exitDy=0;entryX=0.5;entryY=0;entryDx=0;entryDy=0;" edge="1" parent="1" source="O7KNCZ3Anrm-9okoOzQl-14" target="O7KNCZ3Anrm-9okoOzQl-17">
          <mxGeometry width="50" height="50" relative="1" as="geometry">
            <mxPoint x="1080" y="330" as="sourcePoint" />
            <mxPoint x="1120" y="315" as="targetPoint" />
          </mxGeometry>
        </mxCell>
        <mxCell id="O7KNCZ3Anrm-9okoOzQl-122" value="" style="endArrow=none;html=1;rounded=0;entryX=0.5;entryY=1;entryDx=0;entryDy=0;" edge="1" parent="1" target="O7KNCZ3Anrm-9okoOzQl-15">
          <mxGeometry width="50" height="50" relative="1" as="geometry">
            <mxPoint x="510" y="640" as="sourcePoint" />
            <mxPoint x="580" y="585" as="targetPoint" />
          </mxGeometry>
        </mxCell>
        <mxCell id="O7KNCZ3Anrm-9okoOzQl-123" value="" style="endArrow=none;html=1;rounded=0;exitX=0.5;exitY=0;exitDx=0;exitDy=0;entryX=0.5;entryY=1;entryDx=0;entryDy=0;" edge="1" parent="1" source="O7KNCZ3Anrm-9okoOzQl-74" target="O7KNCZ3Anrm-9okoOzQl-15">
          <mxGeometry width="50" height="50" relative="1" as="geometry">
            <mxPoint x="570" y="610" as="sourcePoint" />
            <mxPoint x="610" y="595" as="targetPoint" />
          </mxGeometry>
        </mxCell>
        <mxCell id="O7KNCZ3Anrm-9okoOzQl-124" value="" style="endArrow=none;html=1;rounded=0;exitX=1;exitY=0;exitDx=0;exitDy=0;entryX=0.5;entryY=1;entryDx=0;entryDy=0;" edge="1" parent="1" source="O7KNCZ3Anrm-9okoOzQl-58" target="O7KNCZ3Anrm-9okoOzQl-16">
          <mxGeometry width="50" height="50" relative="1" as="geometry">
            <mxPoint x="940" y="630" as="sourcePoint" />
            <mxPoint x="980" y="615" as="targetPoint" />
          </mxGeometry>
        </mxCell>
        <mxCell id="O7KNCZ3Anrm-9okoOzQl-125" value="" style="endArrow=none;html=1;rounded=0;exitX=0.5;exitY=0;exitDx=0;exitDy=0;entryX=0.5;entryY=1;entryDx=0;entryDy=0;" edge="1" parent="1" source="O7KNCZ3Anrm-9okoOzQl-59" target="O7KNCZ3Anrm-9okoOzQl-16">
          <mxGeometry width="50" height="50" relative="1" as="geometry">
            <mxPoint x="940" y="650" as="sourcePoint" />
            <mxPoint x="980" y="635" as="targetPoint" />
          </mxGeometry>
        </mxCell>
        <mxCell id="O7KNCZ3Anrm-9okoOzQl-126" value="" style="endArrow=none;html=1;rounded=0;exitX=0.5;exitY=0;exitDx=0;exitDy=0;" edge="1" parent="1" source="O7KNCZ3Anrm-9okoOzQl-62">
          <mxGeometry width="50" height="50" relative="1" as="geometry">
            <mxPoint x="990" y="600" as="sourcePoint" />
            <mxPoint x="970" y="585" as="targetPoint" />
          </mxGeometry>
        </mxCell>
        <mxCell id="O7KNCZ3Anrm-9okoOzQl-127" value="" style="endArrow=none;html=1;rounded=0;exitX=0.5;exitY=0;exitDx=0;exitDy=0;entryX=0.5;entryY=1;entryDx=0;entryDy=0;" edge="1" parent="1" source="O7KNCZ3Anrm-9okoOzQl-60" target="O7KNCZ3Anrm-9okoOzQl-16">
          <mxGeometry width="50" height="50" relative="1" as="geometry">
            <mxPoint x="1030" y="620" as="sourcePoint" />
            <mxPoint x="1070" y="605" as="targetPoint" />
          </mxGeometry>
        </mxCell>
        <mxCell id="O7KNCZ3Anrm-9okoOzQl-128" value="" style="endArrow=none;html=1;rounded=0;exitX=0.5;exitY=0;exitDx=0;exitDy=0;entryX=0.5;entryY=1;entryDx=0;entryDy=0;" edge="1" parent="1" source="O7KNCZ3Anrm-9okoOzQl-61" target="O7KNCZ3Anrm-9okoOzQl-16">
          <mxGeometry width="50" height="50" relative="1" as="geometry">
            <mxPoint x="1050" y="610" as="sourcePoint" />
            <mxPoint x="1090" y="595" as="targetPoint" />
          </mxGeometry>
        </mxCell>
        <mxCell id="O7KNCZ3Anrm-9okoOzQl-129" value="" style="endArrow=none;html=1;rounded=0;exitX=0.5;exitY=0;exitDx=0;exitDy=0;" edge="1" parent="1" source="O7KNCZ3Anrm-9okoOzQl-63">
          <mxGeometry width="50" height="50" relative="1" as="geometry">
            <mxPoint x="1080" y="550" as="sourcePoint" />
            <mxPoint x="980" y="590" as="targetPoint" />
          </mxGeometry>
        </mxCell>
        <mxCell id="O7KNCZ3Anrm-9okoOzQl-130" value="" style="endArrow=none;html=1;rounded=0;exitX=1;exitY=0;exitDx=0;exitDy=0;" edge="1" parent="1" source="O7KNCZ3Anrm-9okoOzQl-57">
          <mxGeometry width="50" height="50" relative="1" as="geometry">
            <mxPoint x="850" y="600" as="sourcePoint" />
            <mxPoint x="970" y="585" as="targetPoint" />
          </mxGeometry>
        </mxCell>
        <mxCell id="O7KNCZ3Anrm-9okoOzQl-131" value="" style="endArrow=none;html=1;rounded=0;exitX=0.5;exitY=0;exitDx=0;exitDy=0;entryX=0.5;entryY=1;entryDx=0;entryDy=0;" edge="1" parent="1" source="O7KNCZ3Anrm-9okoOzQl-66" target="O7KNCZ3Anrm-9okoOzQl-17">
          <mxGeometry width="50" height="50" relative="1" as="geometry">
            <mxPoint x="1360" y="590" as="sourcePoint" />
            <mxPoint x="1400" y="575" as="targetPoint" />
          </mxGeometry>
        </mxCell>
        <mxCell id="O7KNCZ3Anrm-9okoOzQl-132" value="" style="endArrow=none;html=1;rounded=0;exitX=0.5;exitY=0;exitDx=0;exitDy=0;entryX=0.5;entryY=1;entryDx=0;entryDy=0;" edge="1" parent="1" source="O7KNCZ3Anrm-9okoOzQl-67" target="O7KNCZ3Anrm-9okoOzQl-17">
          <mxGeometry width="50" height="50" relative="1" as="geometry">
            <mxPoint x="1430" y="620" as="sourcePoint" />
            <mxPoint x="1440" y="590" as="targetPoint" />
          </mxGeometry>
        </mxCell>
        <mxCell id="O7KNCZ3Anrm-9okoOzQl-133" value="" style="endArrow=none;html=1;rounded=0;exitX=0.5;exitY=0;exitDx=0;exitDy=0;entryX=0.5;entryY=1;entryDx=0;entryDy=0;" edge="1" parent="1" source="O7KNCZ3Anrm-9okoOzQl-70" target="O7KNCZ3Anrm-9okoOzQl-17">
          <mxGeometry width="50" height="50" relative="1" as="geometry">
            <mxPoint x="1450" y="590" as="sourcePoint" />
            <mxPoint x="1490" y="575" as="targetPoint" />
          </mxGeometry>
        </mxCell>
        <mxCell id="O7KNCZ3Anrm-9okoOzQl-134" value="" style="endArrow=none;html=1;rounded=0;exitX=0.5;exitY=0;exitDx=0;exitDy=0;entryX=0.5;entryY=1;entryDx=0;entryDy=0;" edge="1" parent="1" source="O7KNCZ3Anrm-9okoOzQl-68" target="O7KNCZ3Anrm-9okoOzQl-17">
          <mxGeometry width="50" height="50" relative="1" as="geometry">
            <mxPoint x="1460" y="440" as="sourcePoint" />
            <mxPoint x="1500" y="425" as="targetPoint" />
          </mxGeometry>
        </mxCell>
        <mxCell id="O7KNCZ3Anrm-9okoOzQl-141" style="edgeStyle=orthogonalEdgeStyle;rounded=0;orthogonalLoop=1;jettySize=auto;html=1;exitX=1;exitY=0.5;exitDx=0;exitDy=0;" edge="1" parent="1" source="O7KNCZ3Anrm-9okoOzQl-135" target="O7KNCZ3Anrm-9okoOzQl-15">
          <mxGeometry relative="1" as="geometry" />
        </mxCell>
        <mxCell id="O7KNCZ3Anrm-9okoOzQl-135" value="tiene" style="rhombus;whiteSpace=wrap;html=1;fillColor=none;" vertex="1" parent="1">
          <mxGeometry x="300" y="515" width="80" height="80" as="geometry" />
        </mxCell>
        <mxCell id="O7KNCZ3Anrm-9okoOzQl-136" value="ida" style="rhombus;whiteSpace=wrap;html=1;fillColor=none;" vertex="1" parent="1">
          <mxGeometry x="-200" y="470" width="80" height="70" as="geometry" />
        </mxCell>
        <mxCell id="O7KNCZ3Anrm-9okoOzQl-137" value="Vuelta" style="rhombus;whiteSpace=wrap;html=1;fillColor=none;" vertex="1" parent="1">
          <mxGeometry x="-200" y="580" width="80" height="70" as="geometry" />
        </mxCell>
        <mxCell id="1RPgfsdV_twO-Qm5rwkJ-2" style="edgeStyle=orthogonalEdgeStyle;rounded=0;orthogonalLoop=1;jettySize=auto;html=1;exitX=0;exitY=0.5;exitDx=0;exitDy=0;entryX=1;entryY=0.5;entryDx=0;entryDy=0;" edge="1" parent="1" source="O7KNCZ3Anrm-9okoOzQl-138" target="O7KNCZ3Anrm-9okoOzQl-40">
          <mxGeometry relative="1" as="geometry" />
        </mxCell>
        <mxCell id="O7KNCZ3Anrm-9okoOzQl-138" value="es en&amp;nbsp;" style="rhombus;whiteSpace=wrap;html=1;fillColor=none;" vertex="1" parent="1">
          <mxGeometry x="-770" y="515" width="80" height="80" as="geometry" />
        </mxCell>
        <mxCell id="O7KNCZ3Anrm-9okoOzQl-139" value="" style="endArrow=none;html=1;rounded=0;exitX=1;exitY=0.5;exitDx=0;exitDy=0;entryX=0;entryY=0.5;entryDx=0;entryDy=0;" edge="1" parent="1" source="O7KNCZ3Anrm-9okoOzQl-47" target="O7KNCZ3Anrm-9okoOzQl-135">
          <mxGeometry width="50" height="50" relative="1" as="geometry">
            <mxPoint x="250" y="530" as="sourcePoint" />
            <mxPoint x="290" y="515" as="targetPoint" />
          </mxGeometry>
        </mxCell>
        <mxCell id="O7KNCZ3Anrm-9okoOzQl-142" value="" style="endArrow=none;html=1;rounded=0;exitX=0.5;exitY=0;exitDx=0;exitDy=0;entryX=0.5;entryY=1;entryDx=0;entryDy=0;" edge="1" parent="1" source="O7KNCZ3Anrm-9okoOzQl-46" target="O7KNCZ3Anrm-9okoOzQl-43">
          <mxGeometry width="50" height="50" relative="1" as="geometry">
            <mxPoint x="-440" y="610" as="sourcePoint" />
            <mxPoint x="-400" y="595" as="targetPoint" />
          </mxGeometry>
        </mxCell>
        <mxCell id="O7KNCZ3Anrm-9okoOzQl-143" value="" style="endArrow=none;html=1;rounded=0;exitX=0.5;exitY=0;exitDx=0;exitDy=0;entryX=0.5;entryY=1;entryDx=0;entryDy=0;" edge="1" parent="1" source="O7KNCZ3Anrm-9okoOzQl-45" target="O7KNCZ3Anrm-9okoOzQl-43">
          <mxGeometry width="50" height="50" relative="1" as="geometry">
            <mxPoint x="-430" y="600" as="sourcePoint" />
            <mxPoint x="-390" y="585" as="targetPoint" />
          </mxGeometry>
        </mxCell>
        <mxCell id="O7KNCZ3Anrm-9okoOzQl-144" value="" style="endArrow=none;html=1;rounded=0;exitX=0.5;exitY=0;exitDx=0;exitDy=0;entryX=0.5;entryY=1;entryDx=0;entryDy=0;" edge="1" parent="1" source="O7KNCZ3Anrm-9okoOzQl-44" target="O7KNCZ3Anrm-9okoOzQl-43">
          <mxGeometry width="50" height="50" relative="1" as="geometry">
            <mxPoint x="-390" y="610" as="sourcePoint" />
            <mxPoint x="-430" y="590" as="targetPoint" />
          </mxGeometry>
        </mxCell>
        <mxCell id="O7KNCZ3Anrm-9okoOzQl-145" value="" style="endArrow=none;html=1;rounded=0;entryX=0;entryY=0.5;entryDx=0;entryDy=0;exitX=1.014;exitY=0.355;exitDx=0;exitDy=0;exitPerimeter=0;" edge="1" parent="1" source="O7KNCZ3Anrm-9okoOzQl-43" target="O7KNCZ3Anrm-9okoOzQl-136">
          <mxGeometry width="50" height="50" relative="1" as="geometry">
            <mxPoint x="-360" y="560" as="sourcePoint" />
            <mxPoint x="-200" y="485" as="targetPoint" />
          </mxGeometry>
        </mxCell>
        <mxCell id="O7KNCZ3Anrm-9okoOzQl-148" value="" style="endArrow=classic;html=1;rounded=0;entryX=1;entryY=0.5;entryDx=0;entryDy=0;exitX=0;exitY=0.5;exitDx=0;exitDy=0;" edge="1" parent="1" source="O7KNCZ3Anrm-9okoOzQl-137" target="O7KNCZ3Anrm-9okoOzQl-43">
          <mxGeometry width="50" height="50" relative="1" as="geometry">
            <mxPoint x="-300" y="640" as="sourcePoint" />
            <mxPoint x="-250" y="590" as="targetPoint" />
          </mxGeometry>
        </mxCell>
        <mxCell id="O7KNCZ3Anrm-9okoOzQl-149" value="" style="endArrow=none;html=1;rounded=0;exitX=1;exitY=0.5;exitDx=0;exitDy=0;entryX=0;entryY=0.5;entryDx=0;entryDy=0;" edge="1" parent="1" source="O7KNCZ3Anrm-9okoOzQl-136" target="O7KNCZ3Anrm-9okoOzQl-47">
          <mxGeometry width="50" height="50" relative="1" as="geometry">
            <mxPoint x="-30" y="510" as="sourcePoint" />
            <mxPoint x="10" y="495" as="targetPoint" />
          </mxGeometry>
        </mxCell>
        <mxCell id="1RPgfsdV_twO-Qm5rwkJ-1" value="" style="endArrow=none;html=1;rounded=0;" edge="1" parent="1" target="O7KNCZ3Anrm-9okoOzQl-43">
          <mxGeometry width="50" height="50" relative="1" as="geometry">
            <mxPoint x="-690" y="555" as="sourcePoint" />
            <mxPoint x="-640" y="505" as="targetPoint" />
          </mxGeometry>
        </mxCell>
        <mxCell id="1RPgfsdV_twO-Qm5rwkJ-3" value="" style="endArrow=none;html=1;rounded=0;exitX=0;exitY=0.5;exitDx=0;exitDy=0;" edge="1" parent="1" source="O7KNCZ3Anrm-9okoOzQl-40">
          <mxGeometry width="50" height="50" relative="1" as="geometry">
            <mxPoint x="-1150" y="584" as="sourcePoint" />
            <mxPoint x="-1100" y="534" as="targetPoint" />
          </mxGeometry>
        </mxCell>
        <mxCell id="1RPgfsdV_twO-Qm5rwkJ-4" value="" style="endArrow=none;html=1;rounded=0;exitX=1;exitY=0.5;exitDx=0;exitDy=0;" edge="1" parent="1" source="O7KNCZ3Anrm-9okoOzQl-42">
          <mxGeometry width="50" height="50" relative="1" as="geometry">
            <mxPoint x="-950" y="710" as="sourcePoint" />
            <mxPoint x="-1060" y="560" as="targetPoint" />
          </mxGeometry>
        </mxCell>
        <mxCell id="1RPgfsdV_twO-Qm5rwkJ-5" value="&amp;nbsp; Aerolinea&amp;nbsp;" style="ellipse;whiteSpace=wrap;html=1;fillColor=none;" vertex="1" parent="1">
          <mxGeometry x="80" y="700" width="70" height="30" as="geometry" />
        </mxCell>
        <mxCell id="1RPgfsdV_twO-Qm5rwkJ-6" value="FechVuelo" style="ellipse;whiteSpace=wrap;html=1;fillColor=none;" vertex="1" parent="1">
          <mxGeometry x="20" y="680" width="60" height="30" as="geometry" />
        </mxCell>
        <mxCell id="1RPgfsdV_twO-Qm5rwkJ-7" value="Id_Vuelo&amp;nbsp;" style="ellipse;whiteSpace=wrap;html=1;fillColor=none;" vertex="1" parent="1">
          <mxGeometry x="-30" y="650" width="60" height="30" as="geometry" />
        </mxCell>
        <mxCell id="1RPgfsdV_twO-Qm5rwkJ-8" value="Precio&amp;nbsp;" style="ellipse;whiteSpace=wrap;html=1;fillColor=none;" vertex="1" parent="1">
          <mxGeometry x="270" y="650" width="60" height="30" as="geometry" />
        </mxCell>
        <mxCell id="1RPgfsdV_twO-Qm5rwkJ-9" value="Duracion&amp;nbsp;" style="ellipse;whiteSpace=wrap;html=1;fillColor=none;" vertex="1" parent="1">
          <mxGeometry x="230" y="681" width="60" height="30" as="geometry" />
        </mxCell>
        <mxCell id="1RPgfsdV_twO-Qm5rwkJ-10" value="HorarioSalida&amp;nbsp;" style="ellipse;whiteSpace=wrap;html=1;fillColor=none;" vertex="1" parent="1">
          <mxGeometry x="160" y="700" width="80" height="30" as="geometry" />
        </mxCell>
        <mxCell id="1RPgfsdV_twO-Qm5rwkJ-12" value="" style="endArrow=none;html=1;rounded=0;entryX=0.572;entryY=0.959;entryDx=0;entryDy=0;entryPerimeter=0;" edge="1" parent="1" target="O7KNCZ3Anrm-9okoOzQl-47">
          <mxGeometry width="50" height="50" relative="1" as="geometry">
            <mxPoint x="60" y="681" as="sourcePoint" />
            <mxPoint x="140" y="590" as="targetPoint" />
          </mxGeometry>
        </mxCell>
        <mxCell id="1RPgfsdV_twO-Qm5rwkJ-13" value="" style="endArrow=none;html=1;rounded=0;exitX=0.5;exitY=0;exitDx=0;exitDy=0;entryX=0.5;entryY=1;entryDx=0;entryDy=0;" edge="1" parent="1" source="1RPgfsdV_twO-Qm5rwkJ-7" target="O7KNCZ3Anrm-9okoOzQl-47">
          <mxGeometry width="50" height="50" relative="1" as="geometry">
            <mxPoint x="70" y="600" as="sourcePoint" />
            <mxPoint x="120" y="550" as="targetPoint" />
          </mxGeometry>
        </mxCell>
        <mxCell id="1RPgfsdV_twO-Qm5rwkJ-14" value="" style="endArrow=none;html=1;rounded=0;exitX=0.5;exitY=0;exitDx=0;exitDy=0;" edge="1" parent="1" source="1RPgfsdV_twO-Qm5rwkJ-5">
          <mxGeometry width="50" height="50" relative="1" as="geometry">
            <mxPoint x="150" y="610" as="sourcePoint" />
            <mxPoint x="150" y="580" as="targetPoint" />
          </mxGeometry>
        </mxCell>
        <mxCell id="1RPgfsdV_twO-Qm5rwkJ-15" value="" style="endArrow=none;html=1;rounded=0;exitX=0.5;exitY=0;exitDx=0;exitDy=0;" edge="1" parent="1" source="1RPgfsdV_twO-Qm5rwkJ-10" target="O7KNCZ3Anrm-9okoOzQl-47">
          <mxGeometry width="50" height="50" relative="1" as="geometry">
            <mxPoint x="170" y="610" as="sourcePoint" />
            <mxPoint x="150" y="590" as="targetPoint" />
          </mxGeometry>
        </mxCell>
        <mxCell id="1RPgfsdV_twO-Qm5rwkJ-16" value="" style="endArrow=none;html=1;rounded=0;" edge="1" parent="1">
          <mxGeometry width="50" height="50" relative="1" as="geometry">
            <mxPoint x="260" y="680" as="sourcePoint" />
            <mxPoint x="150" y="580" as="targetPoint" />
          </mxGeometry>
        </mxCell>
        <mxCell id="1RPgfsdV_twO-Qm5rwkJ-17" value="" style="endArrow=none;html=1;rounded=0;exitX=0.5;exitY=0;exitDx=0;exitDy=0;entryX=0.75;entryY=1;entryDx=0;entryDy=0;" edge="1" parent="1" source="1RPgfsdV_twO-Qm5rwkJ-8" target="O7KNCZ3Anrm-9okoOzQl-47">
          <mxGeometry width="50" height="50" relative="1" as="geometry">
            <mxPoint x="270" y="610" as="sourcePoint" />
            <mxPoint x="160" y="580" as="targetPoint" />
          </mxGeometry>
        </mxCell>
        <mxCell id="1RPgfsdV_twO-Qm5rwkJ-18" value="" style="endArrow=none;html=1;rounded=0;" edge="1" parent="1">
          <mxGeometry width="50" height="50" relative="1" as="geometry">
            <mxPoint x="840" y="270" as="sourcePoint" />
            <mxPoint x="1110" y="280" as="targetPoint" />
            <Array as="points">
              <mxPoint x="870" y="310" />
              <mxPoint x="920" y="340" />
              <mxPoint x="970" y="350" />
              <mxPoint x="1020" y="340" />
              <mxPoint x="1070" y="320" />
            </Array>
          </mxGeometry>
        </mxCell>
        <mxCell id="1RPgfsdV_twO-Qm5rwkJ-19" value="(1,1)" style="text;html=1;align=center;verticalAlign=middle;resizable=0;points=[];autosize=1;strokeColor=none;fillColor=none;" vertex="1" parent="1">
          <mxGeometry x="865" y="78" width="50" height="30" as="geometry" />
        </mxCell>
        <mxCell id="1RPgfsdV_twO-Qm5rwkJ-20" value="(1,n)" style="text;whiteSpace=wrap;html=1;" vertex="1" parent="1">
          <mxGeometry x="645" y="80" width="60" height="40" as="geometry" />
        </mxCell>
        <mxCell id="1RPgfsdV_twO-Qm5rwkJ-21" value="(1,1)" style="text;whiteSpace=wrap;html=1;" vertex="1" parent="1">
          <mxGeometry x="487" y="85" width="60" height="40" as="geometry" />
        </mxCell>
        <mxCell id="1RPgfsdV_twO-Qm5rwkJ-22" value="(0,n)" style="text;whiteSpace=wrap;html=1;" vertex="1" parent="1">
          <mxGeometry x="180" y="85" width="60" height="40" as="geometry" />
        </mxCell>
        <mxCell id="1RPgfsdV_twO-Qm5rwkJ-23" value="(1,2)" style="text;whiteSpace=wrap;html=1;" vertex="1" parent="1">
          <mxGeometry x="200" y="525" width="60" height="40" as="geometry" />
        </mxCell>
        <mxCell id="1RPgfsdV_twO-Qm5rwkJ-24" value="(0,n)" style="text;whiteSpace=wrap;html=1;" vertex="1" parent="1">
          <mxGeometry x="460" y="530" width="60" height="40" as="geometry" />
        </mxCell>
        <mxCell id="1RPgfsdV_twO-Qm5rwkJ-25" value="&lt;span style=&quot;color: rgb(0, 0, 0); font-family: Helvetica; font-size: 12px; font-style: normal; font-variant-ligatures: normal; font-variant-caps: normal; font-weight: 400; letter-spacing: normal; orphans: 2; text-align: center; text-indent: 0px; text-transform: none; widows: 2; word-spacing: 0px; -webkit-text-stroke-width: 0px; white-space: nowrap; background-color: rgb(251, 251, 251); text-decoration-thickness: initial; text-decoration-style: initial; text-decoration-color: initial; display: inline !important; float: none;&quot;&gt;(0,1)&lt;/span&gt;" style="text;whiteSpace=wrap;html=1;" vertex="1" parent="1">
          <mxGeometry x="520" y="500" width="60" height="40" as="geometry" />
        </mxCell>
        <mxCell id="1RPgfsdV_twO-Qm5rwkJ-26" value="&lt;span style=&quot;color: rgb(0, 0, 0); font-family: Helvetica; font-size: 12px; font-style: normal; font-variant-ligatures: normal; font-variant-caps: normal; font-weight: 400; letter-spacing: normal; orphans: 2; text-align: center; text-indent: 0px; text-transform: none; widows: 2; word-spacing: 0px; -webkit-text-stroke-width: 0px; white-space: nowrap; background-color: rgb(251, 251, 251); text-decoration-thickness: initial; text-decoration-style: initial; text-decoration-color: initial; display: inline !important; float: none;&quot;&gt;(0,1)&lt;/span&gt;" style="text;whiteSpace=wrap;html=1;" vertex="1" parent="1">
          <mxGeometry x="941" y="500" width="60" height="40" as="geometry" />
        </mxCell>
        <mxCell id="1RPgfsdV_twO-Qm5rwkJ-27" value="&lt;span style=&quot;color: rgb(0, 0, 0); font-family: Helvetica; font-size: 12px; font-style: normal; font-variant-ligatures: normal; font-variant-caps: normal; font-weight: 400; letter-spacing: normal; orphans: 2; text-align: center; text-indent: 0px; text-transform: none; widows: 2; word-spacing: 0px; -webkit-text-stroke-width: 0px; white-space: nowrap; background-color: rgb(251, 251, 251); text-decoration-thickness: initial; text-decoration-style: initial; text-decoration-color: initial; display: inline !important; float: none;&quot;&gt;(0,1)&lt;/span&gt;" style="text;whiteSpace=wrap;html=1;" vertex="1" parent="1">
          <mxGeometry x="1450" y="500" width="60" height="40" as="geometry" />
        </mxCell>
        <mxCell id="1RPgfsdV_twO-Qm5rwkJ-28" value="&lt;span style=&quot;color: rgb(0, 0, 0); font-family: Helvetica; font-size: 12px; font-style: normal; font-variant-ligatures: normal; font-variant-caps: normal; font-weight: 400; letter-spacing: normal; orphans: 2; text-align: center; text-indent: 0px; text-transform: none; widows: 2; word-spacing: 0px; -webkit-text-stroke-width: 0px; white-space: nowrap; background-color: rgb(251, 251, 251); text-decoration-thickness: initial; text-decoration-style: initial; text-decoration-color: initial; display: inline !important; float: none;&quot;&gt;(1,1)&lt;/span&gt;" style="text;whiteSpace=wrap;html=1;" vertex="1" parent="1">
          <mxGeometry x="970" y="137" width="60" height="40" as="geometry" />
        </mxCell>
        <mxCell id="1RPgfsdV_twO-Qm5rwkJ-30" value="" style="endArrow=classic;html=1;rounded=0;entryX=0;entryY=0.5;entryDx=0;entryDy=0;exitX=1;exitY=0.5;exitDx=0;exitDy=0;" edge="1" parent="1" source="O7KNCZ3Anrm-9okoOzQl-137" target="O7KNCZ3Anrm-9okoOzQl-47">
          <mxGeometry width="50" height="50" relative="1" as="geometry">
            <mxPoint x="-110" y="420" as="sourcePoint" />
            <mxPoint x="-60" y="370" as="targetPoint" />
          </mxGeometry>
        </mxCell>
        <mxCell id="1RPgfsdV_twO-Qm5rwkJ-31" value="&lt;span style=&quot;color: rgb(0, 0, 0); font-family: Helvetica; font-size: 12px; font-style: normal; font-variant-ligatures: normal; font-variant-caps: normal; font-weight: 400; letter-spacing: normal; orphans: 2; text-align: left; text-indent: 0px; text-transform: none; widows: 2; word-spacing: 0px; -webkit-text-stroke-width: 0px; white-space: normal; background-color: rgb(251, 251, 251); text-decoration-thickness: initial; text-decoration-style: initial; text-decoration-color: initial; display: inline !important; float: none;&quot;&gt;(0,n)&lt;/span&gt;" style="text;whiteSpace=wrap;html=1;" vertex="1" parent="1">
          <mxGeometry x="50" y="565" width="60" height="40" as="geometry" />
        </mxCell>
        <mxCell id="1RPgfsdV_twO-Qm5rwkJ-32" value="&lt;span style=&quot;color: rgb(0, 0, 0); font-family: Helvetica; font-size: 12px; font-style: normal; font-variant-ligatures: normal; font-variant-caps: normal; font-weight: 400; letter-spacing: normal; orphans: 2; text-align: left; text-indent: 0px; text-transform: none; widows: 2; word-spacing: 0px; -webkit-text-stroke-width: 0px; white-space: normal; background-color: rgb(251, 251, 251); text-decoration-thickness: initial; text-decoration-style: initial; text-decoration-color: initial; display: inline !important; float: none;&quot;&gt;(0,n)&lt;/span&gt;" style="text;whiteSpace=wrap;html=1;" vertex="1" parent="1">
          <mxGeometry x="49" y="524" width="60" height="40" as="geometry" />
        </mxCell>
        <mxCell id="1RPgfsdV_twO-Qm5rwkJ-33" value="&lt;span style=&quot;color: rgb(0, 0, 0); font-family: Helvetica; font-size: 12px; font-style: normal; font-variant-ligatures: normal; font-variant-caps: normal; font-weight: 400; letter-spacing: normal; orphans: 2; text-align: left; text-indent: 0px; text-transform: none; widows: 2; word-spacing: 0px; -webkit-text-stroke-width: 0px; white-space: normal; background-color: rgb(251, 251, 251); text-decoration-thickness: initial; text-decoration-style: initial; text-decoration-color: initial; display: inline !important; float: none;&quot;&gt;(0,n)&lt;/span&gt;" style="text;whiteSpace=wrap;html=1;" vertex="1" parent="1">
          <mxGeometry x="-370" y="558" width="60" height="40" as="geometry" />
        </mxCell>
        <mxCell id="1RPgfsdV_twO-Qm5rwkJ-35" value="&lt;span style=&quot;color: rgb(0, 0, 0); font-family: Helvetica; font-size: 12px; font-style: normal; font-variant-ligatures: normal; font-variant-caps: normal; font-weight: 400; letter-spacing: normal; orphans: 2; text-align: center; text-indent: 0px; text-transform: none; widows: 2; word-spacing: 0px; -webkit-text-stroke-width: 0px; white-space: nowrap; background-color: rgb(251, 251, 251); text-decoration-thickness: initial; text-decoration-style: initial; text-decoration-color: initial; display: inline !important; float: none;&quot;&gt;(1,1)&lt;/span&gt;" style="text;whiteSpace=wrap;html=1;" vertex="1" parent="1">
          <mxGeometry x="-370" y="515" width="60" height="40" as="geometry" />
        </mxCell>
        <mxCell id="1RPgfsdV_twO-Qm5rwkJ-37" value="&lt;span style=&quot;color: rgb(0, 0, 0); font-family: Helvetica; font-size: 12px; font-style: normal; font-variant-ligatures: normal; font-variant-caps: normal; font-weight: 400; letter-spacing: normal; orphans: 2; text-align: center; text-indent: 0px; text-transform: none; widows: 2; word-spacing: 0px; -webkit-text-stroke-width: 0px; white-space: nowrap; background-color: rgb(251, 251, 251); text-decoration-thickness: initial; text-decoration-style: initial; text-decoration-color: initial; display: inline !important; float: none;&quot;&gt;(1,1)&lt;/span&gt;" style="text;whiteSpace=wrap;html=1;" vertex="1" parent="1">
          <mxGeometry x="-520" y="530" width="60" height="40" as="geometry" />
        </mxCell>
        <mxCell id="1RPgfsdV_twO-Qm5rwkJ-38" value="&lt;span style=&quot;color: rgb(0, 0, 0); font-family: Helvetica; font-size: 12px; font-style: normal; font-variant-ligatures: normal; font-variant-caps: normal; font-weight: 400; letter-spacing: normal; orphans: 2; text-align: center; text-indent: 0px; text-transform: none; widows: 2; word-spacing: 0px; -webkit-text-stroke-width: 0px; white-space: nowrap; background-color: rgb(251, 251, 251); text-decoration-thickness: initial; text-decoration-style: initial; text-decoration-color: initial; display: inline !important; float: none;&quot;&gt;(1,n)&lt;/span&gt;" style="text;whiteSpace=wrap;html=1;" vertex="1" parent="1">
          <mxGeometry x="-940" y="530" width="60" height="40" as="geometry" />
        </mxCell>
      </root>
    </mxGraphModel>
  </diagram>
</mxfile>
